HIERARCHY
ROOT root
{
	OFFSET	0	13.1	24.9
	CHANNELS 6  Xposition Yposition Zposition Xrotation Yrotation Zrotation
	JOINT spine_1
	{
		OFFSET	0	9.99999	0
		CHANNELS 3  Xrotation Yrotation Zrotation
		JOINT spine_2
		{
			OFFSET	0	112	-10
			CHANNELS 3  Xrotation Yrotation Zrotation
			JOINT spine_3
			{
				OFFSET	0	206.5	19.3
				CHANNELS 3  Xrotation Yrotation Zrotation
				JOINT spine_4
				{
					OFFSET	0	110.4	14.6
					CHANNELS 3  Xrotation Yrotation Zrotation
					JOINT neck_1
					{
						OFFSET	0	71.8	-50.3
						CHANNELS 3  Xrotation Yrotation Zrotation
						JOINT neck_2
						{
							OFFSET	0	86.2	-25.8
							CHANNELS 3  Xrotation Yrotation Zrotation
							JOINT head_ee
							{
								OFFSET	0	179.8	-8.7
								CHANNELS 3  Xrotation Yrotation Zrotation
								End Site
								{
									OFFSET	1	0	0
								}
							}
						}
					}
					JOINT left_clavicle
					{
						OFFSET	-43.2	22.4	-70.8
						CHANNELS 3  Xrotation Yrotation Zrotation
						JOINT left_shoulder
						{
							OFFSET	-93.9	-5.79999	48.7
							CHANNELS 3  Xrotation Yrotation Zrotation
							JOINT left_elbow
							{
								OFFSET	-291.4	-30.8	15.2
								CHANNELS 3  Xrotation Yrotation Zrotation
								JOINT left_lowarm_twist
								{
									OFFSET	-110.7	-3.89999	13.6
									CHANNELS 3  Xrotation Yrotation Zrotation
									JOINT left_hand
									{
										OFFSET	-110.7	-3.89999	13.6
										CHANNELS 3  Xrotation Yrotation Zrotation
										JOINT left_ee
										{
											OFFSET	-80.8	-5.10001	12.1
											CHANNELS 3  Xrotation Yrotation Zrotation
											End Site
											{
												OFFSET	1	0	0
											}
										}
									}
								}
							}
						}
					}
					JOINT right_clavicle
					{
						OFFSET	43.2	22.4	-70.8
						CHANNELS 3  Xrotation Yrotation Zrotation
						JOINT right_shoulder
						{
							OFFSET	93.9	-5.79999	48.7
							CHANNELS 3  Xrotation Yrotation Zrotation
							JOINT right_elbow
							{
								OFFSET	291.4	-30.8	15.2
								CHANNELS 3  Xrotation Yrotation Zrotation
								JOINT right_lowarm_twist
								{
									OFFSET	110.7	-3.89999	13.6
									CHANNELS 3  Xrotation Yrotation Zrotation
									JOINT right_hand
									{
										OFFSET	110.7	-3.89999	13.6
										CHANNELS 3  Xrotation Yrotation Zrotation
										JOINT right_ee
										{
											OFFSET	80.8	-5.10001	12.1
											CHANNELS 3  Xrotation Yrotation Zrotation
											End Site
											{
												OFFSET	1	0	0
											}
										}
									}
								}
							}
						}
					}
				}
			}
		}
	}
	JOINT left_hip
	{
		OFFSET	-82.8	-127.5	0.300001
		CHANNELS 3  Xrotation Yrotation Zrotation
		JOINT left_knee
		{
			OFFSET	-28.2	-396.7	2.2
			CHANNELS 3  Xrotation Yrotation Zrotation
			JOINT left_ankle
			{
				OFFSET	-11.7	-411.3	35.4
				CHANNELS 3  Xrotation Yrotation Zrotation
				JOINT left_toes
				{
					OFFSET	0	-60	-88.6
					CHANNELS 3  Xrotation Yrotation Zrotation
					JOINT left_foot_ee
					{
						OFFSET	-22.5	-16.5	-42.2
						CHANNELS 3  Xrotation Yrotation Zrotation
						End Site
						{
							OFFSET	1	0	0
						}
					}
				}
			}
		}
	}
	JOINT right_hip
	{
		OFFSET	82.8	-127.5	0.300001
		CHANNELS 3  Xrotation Yrotation Zrotation
		JOINT right_knee
		{
			OFFSET	28.2	-396.7	2.2
			CHANNELS 3  Xrotation Yrotation Zrotation
			JOINT right_ankle
			{
				OFFSET	11.7	-411.3	35.4
				CHANNELS 3  Xrotation Yrotation Zrotation
				JOINT right_toes
				{
					OFFSET	0	-60	-88.6
					CHANNELS 3  Xrotation Yrotation Zrotation
					JOINT right_foot_ee
					{
						OFFSET	22.5	-16.5	-42.2
						CHANNELS 3  Xrotation Yrotation Zrotation
						End Site
						{
							OFFSET	1	0	0
						}
					}
				}
			}
		}
	}
}
MOTION
Frames: 6
Frame Time: 0.02
636.105119417 692.736 -1139.82527103 -173.090226627 -31.0096701012 -176.879490402 2.46532 0.20685 1.82257 2.46716 0.0904753 1.83204 2.46975 -0.218377 1.82123 2.46513 0.0719427 1.83286 -11.0962 -12.9337 -1.92937 -11.3372 -23.2052 -5.39735 -0.0 0.0 -0.0 -3.45687 21.2177 -2.49928 -2.65987 -40.2541 67.9158 1.08388 -28.2315 0.272575 -8.04345 -0.351851 0.965379 -3.3079 15.0696 -14.4906 -0.0 0.0 -0.0 7.43859 15.9773 -14.0213 -20.9392 16.1558 -65.5768 1.0681 27.8829 -0.265157 6.21121 -0.177066 0.773252 0.386751 -15.3059 -8.67412 0.0 0.0 0.0 20.2153 -9.98562 10.3415 -51.0454 -1.31442 7.46844 38.0766 21.1227 -4.87277 7.30269 -0.0 -0.0 -0.0 0.0 -0.0 35.4598 22.7048 5.30429 -61.1493 2.32536 -8.65084 29.2824 -10.4973 3.82148 -5.2094 0.0 0.0 0.0 0.0 0.0 
647.542516998 689.799 -1126.8416917 -173.963698984 -29.5118304238 -178.209085228 2.59485 0.242703 1.92388 2.5969 0.119813 1.93542 2.60055 -0.202401 1.92854 2.59537 0.104656 1.9363 -7.84895 -12.835 -0.855959 -7.90133 -23.3609 -3.65488 -0.0 0.0 -0.0 -3.60906 20.8533 -2.7978 -2.13939 -40.3716 67.297 1.16995 -30.0937 0.314521 -8.73466 -0.38836 1.04589 -3.36569 14.3588 -15.2667 -0.0 0.0 -0.0 7.33276 16.5172 -13.7571 -21.6507 16.1483 -66.4568 0.826799 22.2725 -0.162757 6.17465 -0.17627 0.76865 0.268191 -16.4747 -8.37629 0.0 0.0 0.0 18.3976 -12.1982 10.1177 -47.1705 -0.984764 6.97128 37.924 21.6817 -4.87157 5.77874 -0.0 -0.0 -0.0 0.0 -0.0 37.2256 23.6991 4.90006 -57.3362 1.91931 -8.22547 22.5925 -6.52145 3.04692 -7.04463 0.0 0.0 0.0 0.0 0.0 
665.974484634 696.503 -1124.48452486 -171.966446739 -32.8153401383 -177.307815671 2.64449 0.0641791 1.78142 2.64626 -0.0492888 1.78189 2.6443 -0.342469 1.74938 2.64004 -0.0619358 1.7815 -4.06087 -12.6426 0.394315 -3.87748 -23.449 -1.59907 -0.0 0.0 -0.0 -3.76281 20.0349 -3.20145 -0.858431 -40.692 66.4398 1.2933 -32.6448 0.378752 -9.63142 -0.437174 1.1497 -3.42459 13.3966 -16.1985 -0.0 0.0 -0.0 7.26878 17.0303 -13.584 -22.4659 16.0334 -67.8498 0.555642 15.3897 -0.0750752 6.2232 -0.177326 0.774762 0.128189 -17.9872 -8.08661 0.0 0.0 0.0 15.6892 -13.8178 11.0675 -41.604 -0.571957 6.22135 37.8802 22.3413 -4.88407 3.98765 -0.0 -0.0 -0.0 0.0 -0.0 40.8361 24.476 2.65444 -51.6082 1.3651 -7.53879 14.6773 -1.69436 2.06101 -9.26622 0.0 0.0 0.0 0.0 0.0 
672.858171469 704.07 -1131.72743634 -169.720813376 -34.447377982 -176.147642707 2.52719 -0.0696153 1.65312 2.5287 -0.174652 1.64535 2.52333 -0.446997 1.59308 2.51983 -0.189826 1.64367 -2.00253 -12.6426 1.01342 -1.68021 -23.6615 -0.550539 -0.0 0.0 -0.0 -3.01753 19.148 -2.27318 -0.076732 -40.7152 65.3916 1.48865 -36.404 0.489527 -9.97269 -0.456177 1.189 -3.43259 13.0175 -16.467 -0.0 0.0 -0.0 7.31563 17.0372 -13.6854 -23.1109 16.2561 -68.1061 0.471415 13.1446 -0.054314 6.18858 -0.176574 0.770403 0.344175 -17.8315 -9.35268 0.0 0.0 0.0 14.4045 -14.205 11.2872 -33.4137 -0.101754 5.05491 37.7239 23.6528 -4.90416 2.96549 -0.0 -0.0 -0.0 0.0 -0.0 42.2013 25.2814 2.72811 -42.8235 0.6561 -6.38896 8.62504 -1.12879 1.24052 -11.3003 0.0 0.0 0.0 0.0 0.0 
672.799813164 704.07 -1131.50206917 -169.726426217 -34.4022068956 -176.157571244 2.52719 -0.0696153 1.65312 2.5287 -0.174652 1.64535 2.52333 -0.446997 1.59308 2.51983 -0.189826 1.64367 -2.00253 -12.6426 1.01342 -1.68021 -23.6615 -0.550539 -0.0 0.0 -0.0 -3.01753 19.148 -2.27318 -0.076732 -40.7152 65.3916 1.48865 -36.404 0.489527 -9.97269 -0.456177 1.189 -3.43259 13.0175 -16.467 -0.0 0.0 -0.0 7.31563 17.0372 -13.6854 -23.1109 16.2561 -68.1061 0.471415 13.1446 -0.054314 6.18858 -0.176574 0.770403 0.344175 -17.8315 -9.35268 0.0 0.0 0.0 14.4045 -14.205 11.2872 -33.4137 -0.101754 5.05491 37.7239 23.6528 -4.90416 2.96549 -0.0 -0.0 -0.0 0.0 -0.0 42.2013 25.2814 2.72811 -42.8235 0.6561 -6.38896 8.62504 -1.12879 1.24052 -11.3003 0.0 0.0 0.0 0.0 0.0 
677.504676982 703.673 -1140.55610155 -167.515745913 -37.7598058107 -174.266122751 2.3739 -0.123563 1.56369 2.37523 -0.222802 1.55266 2.36891 -0.48302 1.49236 2.36588 -0.241298 1.54989 -0.618403 -12.6198 1.43395 -0.198772 -23.7705 0.16846 -0.0 0.0 -0.0 -2.5028 18.5331 -1.61278 0.200243 -40.7269 64.3816 1.64401 -39.156 0.584729 -10.2419 -0.471336 1.21993 -3.42989 12.7067 -16.626 -0.0 0.0 -0.0 7.37232 17.1961 -13.798 -23.4695 16.4305 -67.9649 0.420105 11.7561 -0.0432513 6.2045 -0.17692 0.772407 0.506299 -17.6922 -10.3008 0.0 0.0 0.0 13.4235 -14.4831 11.4267 -27.6393 0.127221 4.19872 37.7414 24.5607 -4.93232 2.29075 -0.0 -0.0 -0.0 0.0 -0.0 43.9255 25.6295 2.39022 -36.009 0.232576 -5.4315 4.42714 -0.679603 0.645998 -12.7157 0.0 0.0 0.0 0.0 0.0 
